<svg width="24" height="24" viewBox="0 0 24 24" fill="none" xmlns="http://www.w3.org/2000/svg">
<path fill-rule="evenodd" clip-rule="evenodd" d="M12.5319 8.25V6.65731C12.5319 5.5015 12.5319 4.9236 12.7639 4.6454C12.9654 4.40381 13.2687 4.27109 13.5829 4.28712C13.9446 4.30557 14.3691 4.6978 15.2179 5.48226L20.7284 10.575C21.17 10.983 21.3908 11.187 21.4726 11.426C21.5445 11.636 21.5445 11.864 21.4726 12.074C21.3908 12.313 21.17 12.517 20.7284 12.925L15.2179 18.0177C14.369 18.8022 13.9446 19.1944 13.5829 19.2129C13.2687 19.2289 12.9654 19.0962 12.7639 18.8546C12.5319 18.5764 12.5319 17.9985 12.5319 16.8427V15.25C8.69408 15.25 6.18177 16.5567 4.62762 17.8663C3.6687 18.6743 3.18924 19.0783 2.99102 19.0713C2.80344 19.0647 2.67051 18.9875 2.57168 18.828C2.46724 18.6594 2.56283 18.1372 2.754 17.0929C3.4176 13.468 5.58017 8.25 12.5319 8.25Z" stroke="white" stroke-width="2" stroke-linejoin="round"/>
</svg>
