<svg width="16" height="16" viewBox="0 0 16 16" fill="none" xmlns="http://www.w3.org/2000/svg">
<path fill-rule="evenodd" clip-rule="evenodd" d="M8.0024 12.3333C4.1191 12.3333 1.33325 9.02705 1.33325 7.99993C1.33325 6.97281 4.13896 3.6666 8.0024 3.6666C11.9006 3.6666 14.6666 6.97281 14.6666 7.99993C14.6666 9.02705 11.9155 12.3333 8.0024 12.3333ZM10.6667 8.00001C10.6667 9.47277 9.47278 10.6667 8.00002 10.6667C6.52726 10.6667 5.33335 9.47277 5.33335 8.00001C5.33335 6.52725 6.52726 5.33334 8.00002 5.33334C9.47278 5.33334 10.6667 6.52725 10.6667 8.00001ZM8.00002 9.00001C8.5523 9.00001 9.00002 8.55229 9.00002 8.00001C9.00002 7.44773 8.5523 7.00001 8.00002 7.00001C7.44774 7.00001 7.00002 7.44773 7.00002 8.00001C7.00002 8.55229 7.44774 9.00001 8.00002 9.00001Z" fill="white"/>
</svg>
